<?xml version="1.0" encoding="UTF-8" standalone="no"?>
<!DOCTYPE svg PUBLIC "-//W3C//DTD SVG 1.1//EN"
 "http://www.w3.org/Graphics/SVG/1.1/DTD/svg11.dtd">
<!-- Generated by graphviz version 2.44.1 (0)
 -->
<!-- Title: g Pages: 1 -->
<svg width="260pt" height="98pt"
 viewBox="0.00 0.00 260.00 98.00" xmlns="http://www.w3.org/2000/svg" xmlns:xlink="http://www.w3.org/1999/xlink">
<g id="graph0" class="graph" transform="scale(1 1) rotate(0) translate(4 94)">
<title>g</title>
<!-- root -->
<g id="node1" class="node">
<title>root</title>
<ellipse fill="none" stroke="black" cx="18" cy="-45" rx="18" ry="18"/>
<text text-anchor="middle" x="18" y="-41.3" font-family="Times,serif" font-size="14.00">Ø</text>
</g>
<!-- c1 -->
<g id="node2" class="node">
<title>c1</title>
<ellipse fill="none" stroke="black" cx="90" cy="-72" rx="18" ry="18"/>
<text text-anchor="middle" x="90" y="-68.3" font-family="Times,serif" font-size="14.00">c(1)</text>
</g>
<!-- root&#45;&#45;c1 -->
<g id="edge1" class="edge">
<title>root&#45;&#45;c1</title>
<path fill="none" stroke="black" d="M35.24,-51.26C46.54,-55.62 61.56,-61.42 72.85,-65.77"/>
</g>
<!-- a2 -->
<g id="node5" class="node">
<title>a2</title>
<ellipse fill="none" stroke="black" cx="90" cy="-18" rx="18" ry="18"/>
<text text-anchor="middle" x="90" y="-14.3" font-family="Times,serif" font-size="14.00">a(1)</text>
</g>
<!-- root&#45;&#45;a2 -->
<g id="edge4" class="edge">
<title>root&#45;&#45;a2</title>
<path fill="none" stroke="black" d="M35.24,-38.74C46.54,-34.38 61.56,-28.58 72.85,-24.23"/>
</g>
<!-- f1 -->
<g id="node3" class="node">
<title>f1</title>
<ellipse fill="none" stroke="black" cx="162" cy="-72" rx="18" ry="18"/>
<text text-anchor="middle" x="162" y="-68.3" font-family="Times,serif" font-size="14.00">f(1)</text>
</g>
<!-- c1&#45;&#45;f1 -->
<g id="edge2" class="edge">
<title>c1&#45;&#45;f1</title>
<path fill="none" stroke="black" d="M108.3,-72C119.15,-72 133.08,-72 143.9,-72"/>
</g>
<!-- a1 -->
<g id="node4" class="node">
<title>a1</title>
<ellipse fill="none" stroke="black" cx="234" cy="-72" rx="18" ry="18"/>
<text text-anchor="middle" x="234" y="-68.3" font-family="Times,serif" font-size="14.00">a(1)</text>
</g>
<!-- f1&#45;&#45;a1 -->
<g id="edge3" class="edge">
<title>f1&#45;&#45;a1</title>
<path fill="none" stroke="black" d="M180.3,-72C191.15,-72 205.08,-72 215.9,-72"/>
</g>
</g>
</svg>
