<?xml version="1.0" encoding="UTF-8" standalone="no"?>
<!DOCTYPE svg PUBLIC "-//W3C//DTD SVG 1.1//EN"
 "http://www.w3.org/Graphics/SVG/1.1/DTD/svg11.dtd">
<!-- Generated by graphviz version 2.44.1 (0)
 -->
<!-- Title: g Pages: 1 -->
<svg width="326pt" height="410pt"
 viewBox="0.00 0.00 325.50 410.00" xmlns="http://www.w3.org/2000/svg" xmlns:xlink="http://www.w3.org/1999/xlink">
<g id="graph0" class="graph" transform="scale(1 1) rotate(0) translate(4 406)">
<title>g</title>
<!-- root -->
<g id="node1" class="node">
<title>root</title>
<ellipse fill="none" stroke="black" cx="126" cy="-345" rx="18" ry="18"/>
<text text-anchor="middle" x="126" y="-341.3" font-family="Times,serif" font-size="14.00">Ø</text>
</g>
<!-- c1 -->
<g id="node2" class="node">
<title>c1</title>
<ellipse fill="none" stroke="violet" cx="99" cy="-234" rx="18" ry="18"/>
<text text-anchor="middle" x="99" y="-230.3" font-family="Times,serif" font-size="14.00">c(5)</text>
</g>
<!-- root&#45;&#45;c1 -->
<g id="edge1" class="edge">
<title>root&#45;&#45;c1</title>
<path fill="none" stroke="black" d="M121.9,-327.45C116.82,-306.96 108.23,-272.27 103.14,-251.71"/>
</g>
<!-- a2 -->
<g id="node8" class="node">
<title>a2</title>
<ellipse fill="none" stroke="lightgreen" cx="153" cy="-234" rx="18" ry="18"/>
<text text-anchor="middle" x="153" y="-230.3" font-family="Times,serif" font-size="14.00">a(1)</text>
</g>
<!-- root&#45;&#45;a2 -->
<g id="edge7" class="edge">
<title>root&#45;&#45;a2</title>
<path fill="none" stroke="black" d="M130.1,-327.45C135.18,-306.96 143.77,-272.27 148.86,-251.71"/>
</g>
<!-- f1 -->
<g id="node3" class="node">
<title>f1</title>
<ellipse fill="none" stroke="orange" cx="45" cy="-162" rx="18" ry="18"/>
<text text-anchor="middle" x="45" y="-158.3" font-family="Times,serif" font-size="14.00">f(4)</text>
</g>
<!-- c1&#45;&#45;f1 -->
<g id="edge2" class="edge">
<title>c1&#45;&#45;f1</title>
<path fill="none" stroke="black" d="M88.33,-219.17C78.86,-206.9 65.11,-189.06 55.65,-176.8"/>
</g>
<!-- b2 -->
<g id="node7" class="node">
<title>b2</title>
<ellipse fill="none" stroke="crimson" cx="99" cy="-162" rx="18" ry="18"/>
<text text-anchor="middle" x="99" y="-158.3" font-family="Times,serif" font-size="14.00">b(1)</text>
</g>
<!-- c1&#45;&#45;b2 -->
<g id="edge6" class="edge">
<title>c1&#45;&#45;b2</title>
<path fill="none" stroke="black" d="M99,-215.7C99,-204.85 99,-190.92 99,-180.1"/>
</g>
<!-- a1 -->
<g id="node4" class="node">
<title>a1</title>
<ellipse fill="none" stroke="lightgreen" cx="18" cy="-90" rx="18" ry="18"/>
<text text-anchor="middle" x="18" y="-86.3" font-family="Times,serif" font-size="14.00">a(2)</text>
</g>
<!-- f1&#45;&#45;a1 -->
<g id="edge3" class="edge">
<title>f1&#45;&#45;a1</title>
<path fill="none" stroke="black" d="M38.74,-144.76C34.38,-133.46 28.58,-118.44 24.23,-107.15"/>
</g>
<!-- b1 -->
<g id="node6" class="node">
<title>b1</title>
<ellipse fill="none" stroke="crimson" cx="72" cy="-90" rx="18" ry="18"/>
<text text-anchor="middle" x="72" y="-86.3" font-family="Times,serif" font-size="14.00">b(1)</text>
</g>
<!-- f1&#45;&#45;b1 -->
<g id="edge5" class="edge">
<title>f1&#45;&#45;b1</title>
<path fill="none" stroke="black" d="M51.26,-144.76C55.62,-133.46 61.42,-118.44 65.77,-107.15"/>
</g>
<!-- d1 -->
<g id="node5" class="node">
<title>d1</title>
<ellipse fill="none" stroke="dodgerblue" cx="18" cy="-18" rx="18" ry="18"/>
<text text-anchor="middle" x="18" y="-14.3" font-family="Times,serif" font-size="14.00">d(1)</text>
</g>
<!-- a1&#45;&#45;d1 -->
<g id="edge4" class="edge">
<title>a1&#45;&#45;d1</title>
<path fill="none" stroke="black" d="M18,-71.7C18,-60.85 18,-46.92 18,-36.1"/>
</g>
<!-- d2 -->
<g id="node9" class="node">
<title>d2</title>
<ellipse fill="none" stroke="dodgerblue" cx="153" cy="-162" rx="18" ry="18"/>
<text text-anchor="middle" x="153" y="-158.3" font-family="Times,serif" font-size="14.00">d(1)</text>
</g>
<!-- a2&#45;&#45;d2 -->
<g id="edge8" class="edge">
<title>a2&#45;&#45;d2</title>
<path fill="none" stroke="black" d="M153,-215.7C153,-204.85 153,-190.92 153,-180.1"/>
</g>
<!-- tbl -->
<g id="node10" class="node">
<title>tbl</title>
<text text-anchor="start" x="165" y="-388.8" font-family="Times,serif" font-size="14.00">Item</text>
<text text-anchor="start" x="203" y="-388.8" font-family="Times,serif" font-size="14.00">Frequência</text>
<text text-anchor="start" x="288" y="-388.8" font-family="Times,serif" font-size="14.00">Nós</text>
<text text-anchor="start" x="178" y="-369.8" font-family="Times,serif" font-size="14.00">c</text>
<text text-anchor="start" x="238.5" y="-369.8" font-family="Times,serif" font-size="14.00">5</text>
<polygon fill="violet" stroke="transparent" points="286,-364 286,-383 318,-383 318,-364 286,-364"/>
<text text-anchor="start" x="297" y="-369.8" font-family="Times,serif" font-size="14.00">1</text>
<text text-anchor="start" x="179" y="-350.8" font-family="Times,serif" font-size="14.00">f</text>
<text text-anchor="start" x="238.5" y="-350.8" font-family="Times,serif" font-size="14.00">4</text>
<polygon fill="orange" stroke="transparent" points="286,-345 286,-364 318,-364 318,-345 286,-345"/>
<text text-anchor="start" x="297" y="-350.8" font-family="Times,serif" font-size="14.00">1</text>
<text text-anchor="start" x="177.5" y="-331.8" font-family="Times,serif" font-size="14.00">a</text>
<text text-anchor="start" x="238.5" y="-331.8" font-family="Times,serif" font-size="14.00">3</text>
<polygon fill="lightgreen" stroke="transparent" points="286,-326 286,-345 318,-345 318,-326 286,-326"/>
<text text-anchor="start" x="297" y="-331.8" font-family="Times,serif" font-size="14.00">2</text>
<text text-anchor="start" x="177" y="-312.8" font-family="Times,serif" font-size="14.00">b</text>
<text text-anchor="start" x="238.5" y="-312.8" font-family="Times,serif" font-size="14.00">2</text>
<polygon fill="crimson" stroke="transparent" points="286,-307 286,-326 318,-326 318,-307 286,-307"/>
<text text-anchor="start" x="297" y="-312.8" font-family="Times,serif" font-size="14.00">2</text>
<text text-anchor="start" x="177" y="-293.8" font-family="Times,serif" font-size="14.00">d</text>
<text text-anchor="start" x="238.5" y="-293.8" font-family="Times,serif" font-size="14.00">2</text>
<polygon fill="dodgerblue" stroke="transparent" points="286,-288 286,-307 318,-307 318,-288 286,-288"/>
<text text-anchor="start" x="297" y="-293.8" font-family="Times,serif" font-size="14.00">2</text>
</g>
</g>
</svg>
