<?xml version="1.0" encoding="UTF-8" standalone="no"?>
<!DOCTYPE svg PUBLIC "-//W3C//DTD SVG 1.1//EN"
 "http://www.w3.org/Graphics/SVG/1.1/DTD/svg11.dtd">
<!-- Generated by graphviz version 2.44.1 (0)
 -->
<!-- Title: g Pages: 1 -->
<svg width="245pt" height="300pt"
 viewBox="0.00 0.00 244.50 300.00" xmlns="http://www.w3.org/2000/svg" xmlns:xlink="http://www.w3.org/1999/xlink">
<g id="graph0" class="graph" transform="scale(1 1) rotate(0) translate(4 296)">
<title>g</title>
<!-- root -->
<g id="node1" class="node">
<title>root</title>
<ellipse fill="none" stroke="black" cx="45" cy="-254" rx="18" ry="18"/>
<text text-anchor="middle" x="45" y="-250.3" font-family="Times,serif" font-size="14.00">Ø</text>
</g>
<!-- c1 -->
<g id="node2" class="node">
<title>c1</title>
<ellipse fill="none" stroke="violet" cx="18" cy="-162" rx="18" ry="18"/>
<text text-anchor="middle" x="18" y="-158.3" font-family="Times,serif" font-size="14.00">c(1)</text>
</g>
<!-- root&#45;&#45;c1 -->
<g id="edge1" class="edge">
<title>root&#45;&#45;c1</title>
<path fill="none" stroke="black" d="M40.05,-236.49C35.18,-220.25 27.78,-195.61 22.92,-179.4"/>
</g>
<!-- a2 -->
<g id="node5" class="node">
<title>a2</title>
<ellipse fill="none" stroke="lightgreen" cx="72" cy="-162" rx="18" ry="18"/>
<text text-anchor="middle" x="72" y="-158.3" font-family="Times,serif" font-size="14.00">a(1)</text>
</g>
<!-- root&#45;&#45;a2 -->
<g id="edge4" class="edge">
<title>root&#45;&#45;a2</title>
<path fill="none" stroke="black" d="M49.95,-236.49C54.82,-220.25 62.22,-195.61 67.08,-179.4"/>
</g>
<!-- f1 -->
<g id="node3" class="node">
<title>f1</title>
<ellipse fill="none" stroke="orange" cx="18" cy="-90" rx="18" ry="18"/>
<text text-anchor="middle" x="18" y="-86.3" font-family="Times,serif" font-size="14.00">f(1)</text>
</g>
<!-- c1&#45;&#45;f1 -->
<g id="edge2" class="edge">
<title>c1&#45;&#45;f1</title>
<path fill="none" stroke="black" d="M18,-143.7C18,-132.85 18,-118.92 18,-108.1"/>
</g>
<!-- a1 -->
<g id="node4" class="node">
<title>a1</title>
<ellipse fill="none" stroke="lightgreen" cx="18" cy="-18" rx="18" ry="18"/>
<text text-anchor="middle" x="18" y="-14.3" font-family="Times,serif" font-size="14.00">a(1)</text>
</g>
<!-- f1&#45;&#45;a1 -->
<g id="edge3" class="edge">
<title>f1&#45;&#45;a1</title>
<path fill="none" stroke="black" d="M18,-71.7C18,-60.85 18,-46.92 18,-36.1"/>
</g>
<!-- tbl -->
<g id="node6" class="node">
<title>tbl</title>
<text text-anchor="start" x="84" y="-278.8" font-family="Times,serif" font-size="14.00">Item</text>
<text text-anchor="start" x="122" y="-278.8" font-family="Times,serif" font-size="14.00">Frequência</text>
<text text-anchor="start" x="207" y="-278.8" font-family="Times,serif" font-size="14.00">Nós</text>
<text text-anchor="start" x="96.5" y="-259.8" font-family="Times,serif" font-size="14.00">a</text>
<text text-anchor="start" x="157.5" y="-259.8" font-family="Times,serif" font-size="14.00">2</text>
<polygon fill="lightgreen" stroke="transparent" points="205,-254 205,-273 237,-273 237,-254 205,-254"/>
<text text-anchor="start" x="216" y="-259.8" font-family="Times,serif" font-size="14.00">2</text>
<text text-anchor="start" x="97" y="-240.8" font-family="Times,serif" font-size="14.00">c</text>
<text text-anchor="start" x="157.5" y="-240.8" font-family="Times,serif" font-size="14.00">1</text>
<polygon fill="violet" stroke="transparent" points="205,-235 205,-254 237,-254 237,-235 205,-235"/>
<text text-anchor="start" x="216" y="-240.8" font-family="Times,serif" font-size="14.00">1</text>
<text text-anchor="start" x="98" y="-221.8" font-family="Times,serif" font-size="14.00">f</text>
<text text-anchor="start" x="157.5" y="-221.8" font-family="Times,serif" font-size="14.00">1</text>
<polygon fill="orange" stroke="transparent" points="205,-216 205,-235 237,-235 237,-216 205,-216"/>
<text text-anchor="start" x="216" y="-221.8" font-family="Times,serif" font-size="14.00">1</text>
</g>
</g>
</svg>
