<?xml version="1.0" encoding="UTF-8" standalone="no"?>
<!DOCTYPE svg PUBLIC "-//W3C//DTD SVG 1.1//EN"
 "http://www.w3.org/Graphics/SVG/1.1/DTD/svg11.dtd">
<!-- Generated by graphviz version 2.44.1 (0)
 -->
<!-- Title: g Pages: 1 -->
<svg width="218pt" height="209pt"
 viewBox="0.00 0.00 217.50 209.00" xmlns="http://www.w3.org/2000/svg" xmlns:xlink="http://www.w3.org/1999/xlink">
<g id="graph0" class="graph" transform="scale(1 1) rotate(0) translate(4 205)">
<title>g</title>
<!-- root -->
<g id="node1" class="node">
<title>root</title>
<ellipse fill="none" stroke="black" cx="18" cy="-172.5" rx="18" ry="18"/>
<text text-anchor="middle" x="18" y="-168.8" font-family="Times,serif" font-size="14.00">Ø</text>
</g>
<!-- c1 -->
<g id="node2" class="node">
<title>c1</title>
<ellipse fill="none" stroke="violet" cx="18" cy="-90" rx="18" ry="18"/>
<text text-anchor="middle" x="18" y="-86.3" font-family="Times,serif" font-size="14.00">c(2)</text>
</g>
<!-- root&#45;&#45;c1 -->
<g id="edge1" class="edge">
<title>root&#45;&#45;c1</title>
<path fill="none" stroke="black" d="M18,-154.43C18,-140.77 18,-121.7 18,-108.05"/>
</g>
<!-- f1 -->
<g id="node3" class="node">
<title>f1</title>
<ellipse fill="none" stroke="orange" cx="18" cy="-18" rx="18" ry="18"/>
<text text-anchor="middle" x="18" y="-14.3" font-family="Times,serif" font-size="14.00">f(1)</text>
</g>
<!-- c1&#45;&#45;f1 -->
<g id="edge2" class="edge">
<title>c1&#45;&#45;f1</title>
<path fill="none" stroke="black" d="M18,-71.7C18,-60.85 18,-46.92 18,-36.1"/>
</g>
<!-- tbl -->
<g id="node4" class="node">
<title>tbl</title>
<text text-anchor="start" x="57" y="-187.3" font-family="Times,serif" font-size="14.00">Item</text>
<text text-anchor="start" x="95" y="-187.3" font-family="Times,serif" font-size="14.00">Frequência</text>
<text text-anchor="start" x="180" y="-187.3" font-family="Times,serif" font-size="14.00">Nós</text>
<text text-anchor="start" x="70" y="-168.3" font-family="Times,serif" font-size="14.00">c</text>
<text text-anchor="start" x="130.5" y="-168.3" font-family="Times,serif" font-size="14.00">2</text>
<polygon fill="violet" stroke="transparent" points="178,-162.5 178,-181.5 210,-181.5 210,-162.5 178,-162.5"/>
<text text-anchor="start" x="189" y="-168.3" font-family="Times,serif" font-size="14.00">1</text>
<text text-anchor="start" x="71" y="-149.3" font-family="Times,serif" font-size="14.00">f</text>
<text text-anchor="start" x="130.5" y="-149.3" font-family="Times,serif" font-size="14.00">1</text>
<polygon fill="orange" stroke="transparent" points="178,-143.5 178,-162.5 210,-162.5 210,-143.5 178,-143.5"/>
<text text-anchor="start" x="189" y="-149.3" font-family="Times,serif" font-size="14.00">1</text>
</g>
</g>
</svg>
