<?xml version="1.0" encoding="UTF-8" standalone="no"?>
<!DOCTYPE svg PUBLIC "-//W3C//DTD SVG 1.1//EN"
 "http://www.w3.org/Graphics/SVG/1.1/DTD/svg11.dtd">
<!-- Generated by graphviz version 2.44.1 (0)
 -->
<!-- Title: g Pages: 1 -->
<svg width="325pt" height="410pt"
 viewBox="0.00 0.00 325.00 410.00" xmlns="http://www.w3.org/2000/svg" xmlns:xlink="http://www.w3.org/1999/xlink">
<g id="graph0" class="graph" transform="scale(1 1) rotate(0) translate(4 406)">
<title>g</title>
<!-- tbl -->
<g id="node1" class="node">
<title>tbl</title>
<text text-anchor="start" x="9" y="-388.8" font-family="Times,serif" font-size="14.00">Item</text>
<text text-anchor="start" x="47" y="-388.8" font-family="Times,serif" font-size="14.00">Frequência</text>
<text text-anchor="start" x="132" y="-388.8" font-family="Times,serif" font-size="14.00">Nós</text>
<text text-anchor="start" x="22" y="-369.8" font-family="Times,serif" font-size="14.00">c</text>
<text text-anchor="start" x="82.5" y="-369.8" font-family="Times,serif" font-size="14.00">5</text>
<text text-anchor="start" x="141" y="-369.8" font-family="Times,serif" font-size="14.00">1</text>
<text text-anchor="start" x="23" y="-350.8" font-family="Times,serif" font-size="14.00">f</text>
<text text-anchor="start" x="82.5" y="-350.8" font-family="Times,serif" font-size="14.00">4</text>
<text text-anchor="start" x="141" y="-350.8" font-family="Times,serif" font-size="14.00">1</text>
<text text-anchor="start" x="21.5" y="-331.8" font-family="Times,serif" font-size="14.00">a</text>
<text text-anchor="start" x="82.5" y="-331.8" font-family="Times,serif" font-size="14.00">3</text>
<text text-anchor="start" x="141" y="-331.8" font-family="Times,serif" font-size="14.00">2</text>
<text text-anchor="start" x="21" y="-312.8" font-family="Times,serif" font-size="14.00">b</text>
<text text-anchor="start" x="82.5" y="-312.8" font-family="Times,serif" font-size="14.00">2</text>
<text text-anchor="start" x="141" y="-312.8" font-family="Times,serif" font-size="14.00">2</text>
<text text-anchor="start" x="21" y="-293.8" font-family="Times,serif" font-size="14.00">d</text>
<text text-anchor="start" x="82.5" y="-293.8" font-family="Times,serif" font-size="14.00">2</text>
<text text-anchor="start" x="141" y="-293.8" font-family="Times,serif" font-size="14.00">2</text>
</g>
<!-- c1 -->
<g id="node3" class="node">
<title>c1</title>
<ellipse fill="none" stroke="black" cx="169" cy="-234" rx="18" ry="18"/>
<text text-anchor="middle" x="169" y="-230.3" font-family="Times,serif" font-size="14.00">c(5)</text>
</g>
<!-- tbl&#45;&#45;c1 -->
<g id="edge9" class="edge">
<title>tbl:c&#45;&#45;c1</title>
<path fill="none" stroke="black" stroke-dasharray="5,2" d="M163,-374C211.67,-374 187.44,-287.88 174.92,-251.22"/>
</g>
<!-- f1 -->
<g id="node4" class="node">
<title>f1</title>
<ellipse fill="none" stroke="black" cx="79" cy="-162" rx="18" ry="18"/>
<text text-anchor="middle" x="79" y="-158.3" font-family="Times,serif" font-size="14.00">f(4)</text>
</g>
<!-- tbl&#45;&#45;f1 -->
<g id="edge10" class="edge">
<title>tbl:f&#45;&#45;f1</title>
<path fill="none" stroke="blue" stroke-dasharray="5,2" d="M163,-355C192.78,-355 176.13,-314.21 162,-288 148.48,-262.94 126.22,-274.68 109,-252 92.53,-230.32 84.78,-199.05 81.38,-179.93"/>
</g>
<!-- a1 -->
<g id="node5" class="node">
<title>a1</title>
<ellipse fill="none" stroke="black" cx="41" cy="-90" rx="18" ry="18"/>
<text text-anchor="middle" x="41" y="-86.3" font-family="Times,serif" font-size="14.00">a(2)</text>
</g>
<!-- tbl&#45;&#45;a1 -->
<g id="edge11" class="edge">
<title>tbl:a&#45;&#45;a1</title>
<path fill="none" stroke="orange" stroke-dasharray="5,2" d="M163,-335C183.89,-335 173.27,-305.59 162,-288 142.27,-257.2 114,-277.72 88,-252 62.56,-226.84 62.34,-214.25 52,-180 44.66,-155.71 42.21,-126.27 41.4,-108.08"/>
</g>
<!-- d1 -->
<g id="node6" class="node">
<title>d1</title>
<ellipse fill="none" stroke="black" cx="18" cy="-18" rx="18" ry="18"/>
<text text-anchor="middle" x="18" y="-14.3" font-family="Times,serif" font-size="14.00">d(1)</text>
</g>
<!-- tbl&#45;&#45;d1 -->
<g id="edge15" class="edge">
<title>tbl:d&#45;&#45;d1</title>
<path fill="none" stroke="red" stroke-dasharray="5,2" d="M146,-288C146,-246.56 87.99,-282.55 60,-252 3.21,-190.03 10.35,-78.38 15.52,-35.97"/>
</g>
<!-- b1 -->
<g id="node7" class="node">
<title>b1</title>
<ellipse fill="none" stroke="black" cx="110" cy="-90" rx="18" ry="18"/>
<text text-anchor="middle" x="110" y="-86.3" font-family="Times,serif" font-size="14.00">b(1)</text>
</g>
<!-- tbl&#45;&#45;b1 -->
<g id="edge13" class="edge">
<title>tbl:b&#45;&#45;b1</title>
<path fill="none" stroke="green" stroke-dasharray="5,2" d="M163,-316C188.98,-316 150.39,-274.88 142,-252 123.55,-201.7 114.94,-138.45 111.67,-108.4"/>
</g>
<!-- b2 -->
<g id="node8" class="node">
<title>b2</title>
<ellipse fill="none" stroke="black" cx="201" cy="-162" rx="18" ry="18"/>
<text text-anchor="middle" x="201" y="-158.3" font-family="Times,serif" font-size="14.00">b(1)</text>
</g>
<!-- tbl&#45;&#45;b2 -->
<g id="edge14" class="edge">
<title>tbl:b&#45;&#45;b2</title>
<path fill="none" stroke="green" stroke-dasharray="5,2" d="M163,-316C218.56,-316 209.9,-219.79 203.93,-179.96"/>
</g>
<!-- a2 -->
<g id="node9" class="node">
<title>a2</title>
<ellipse fill="none" stroke="black" cx="299" cy="-234" rx="18" ry="18"/>
<text text-anchor="middle" x="299" y="-230.3" font-family="Times,serif" font-size="14.00">a(1)</text>
</g>
<!-- tbl&#45;&#45;a2 -->
<g id="edge12" class="edge">
<title>tbl:a&#45;&#45;a2</title>
<path fill="none" stroke="orange" stroke-dasharray="5,2" d="M163,-335C196.18,-335 194.37,-307.79 221,-288 242.42,-272.09 268.19,-254.95 284.08,-244.6"/>
</g>
<!-- d2 -->
<g id="node10" class="node">
<title>d2</title>
<ellipse fill="none" stroke="black" cx="266" cy="-162" rx="18" ry="18"/>
<text text-anchor="middle" x="266" y="-158.3" font-family="Times,serif" font-size="14.00">d(1)</text>
</g>
<!-- tbl&#45;&#45;d2 -->
<g id="edge16" class="edge">
<title>tbl:d&#45;&#45;d2</title>
<path fill="none" stroke="red" stroke-dasharray="5,2" d="M163,-297C221.54,-297 251.39,-215.62 261.72,-179.7"/>
</g>
<!-- root -->
<g id="node2" class="node">
<title>root</title>
<ellipse fill="none" stroke="black" cx="248" cy="-345" rx="18" ry="18"/>
<text text-anchor="middle" x="248" y="-341.3" font-family="Times,serif" font-size="14.00">Ø</text>
</g>
<!-- root&#45;&#45;c1 -->
<g id="edge1" class="edge">
<title>root&#45;&#45;c1</title>
<path fill="none" stroke="black" d="M237.67,-329.75C222.53,-308.86 194.47,-270.15 179.33,-249.25"/>
</g>
<!-- root&#45;&#45;a2 -->
<g id="edge7" class="edge">
<title>root&#45;&#45;a2</title>
<path fill="none" stroke="black" d="M255.31,-328.38C265,-307.66 282.02,-271.29 291.71,-250.59"/>
</g>
<!-- c1&#45;&#45;f1 -->
<g id="edge2" class="edge">
<title>c1&#45;&#45;f1</title>
<path fill="none" stroke="black" d="M154.94,-222.06C138.03,-208.91 109.83,-186.98 92.96,-173.86"/>
</g>
<!-- c1&#45;&#45;b2 -->
<g id="edge6" class="edge">
<title>c1&#45;&#45;b2</title>
<path fill="none" stroke="black" d="M176.26,-217.12C181.5,-205.66 188.54,-190.26 193.77,-178.82"/>
</g>
<!-- f1&#45;&#45;a1 -->
<g id="edge3" class="edge">
<title>f1&#45;&#45;a1</title>
<path fill="none" stroke="black" d="M70.75,-145.81C64.38,-134.07 55.6,-117.89 49.23,-106.16"/>
</g>
<!-- f1&#45;&#45;b1 -->
<g id="edge5" class="edge">
<title>f1&#45;&#45;b1</title>
<path fill="none" stroke="black" d="M86.03,-145.12C91.11,-133.66 97.93,-118.26 102.99,-106.82"/>
</g>
<!-- a1&#45;&#45;d1 -->
<g id="edge4" class="edge">
<title>a1&#45;&#45;d1</title>
<path fill="none" stroke="black" d="M35.67,-72.76C32,-61.62 27.16,-46.87 23.47,-35.63"/>
</g>
<!-- a2&#45;&#45;d2 -->
<g id="edge8" class="edge">
<title>a2&#45;&#45;d2</title>
<path fill="none" stroke="black" d="M291.68,-217.46C286.21,-205.86 278.77,-190.08 273.3,-178.49"/>
</g>
</g>
</svg>
