<?xml version="1.0" encoding="UTF-8" standalone="no"?>
<!DOCTYPE svg PUBLIC "-//W3C//DTD SVG 1.1//EN"
 "http://www.w3.org/Graphics/SVG/1.1/DTD/svg11.dtd">
<!-- Generated by graphviz version 2.44.1 (0)
 -->
<!-- Title: G Pages: 1 -->
<svg width="572pt" height="421pt"
 viewBox="0.00 0.00 572.20 420.70" xmlns="http://www.w3.org/2000/svg" xmlns:xlink="http://www.w3.org/1999/xlink">
<g id="graph0" class="graph" transform="scale(1 1) rotate(0) translate(4 416.7)">
<title>G</title>
<!-- ∅ -->
<g id="node1" class="node">
<title>∅</title>
<ellipse fill="ivory" stroke="black" cx="271.6" cy="-385.83" rx="65.52" ry="26.74"/>
<text text-anchor="middle" x="271.6" y="-389.63" font-family="Times,serif" font-size="14.00">Ø</text>
<text text-anchor="middle" x="271.6" y="-374.63" font-family="Times,serif" font-size="14.00">1,2,3,4,5,6</text>
</g>
<!-- {a} -->
<g id="node2" class="node">
<title>{a}</title>
<ellipse fill="ivory" stroke="black" cx="131.6" cy="-296.09" rx="37.45" ry="26.74"/>
<text text-anchor="middle" x="131.6" y="-299.89" font-family="Times,serif" font-size="14.00">{a}</text>
<text text-anchor="middle" x="131.6" y="-284.89" font-family="Times,serif" font-size="14.00">1,4,6</text>
</g>
<!-- ∅&#45;&#45;{a} -->
<g id="edge1" class="edge">
<title>∅&#45;&#45;{a}</title>
<path fill="none" stroke="black" d="M236.63,-362.92C212.82,-347.99 181.72,-328.5 159.56,-314.61"/>
</g>
<!-- {b} -->
<g id="node3" class="node">
<title>{b}</title>
<ellipse fill="ivory" stroke="black" cx="218.6" cy="-296.09" rx="31.23" ry="26.74"/>
<text text-anchor="middle" x="218.6" y="-299.89" font-family="Times,serif" font-size="14.00">{b}</text>
<text text-anchor="middle" x="218.6" y="-284.89" font-family="Times,serif" font-size="14.00">2,5</text>
</g>
<!-- ∅&#45;&#45;{b} -->
<g id="edge2" class="edge">
<title>∅&#45;&#45;{b}</title>
<path fill="none" stroke="black" d="M256.27,-359.45C248.81,-347.1 239.9,-332.36 232.62,-320.31"/>
</g>
<!-- {c} -->
<g id="node4" class="node">
<title>{c}</title>
<ellipse fill="ivory" stroke="black" cx="324.6" cy="-296.09" rx="56.64" ry="26.74"/>
<text text-anchor="middle" x="324.6" y="-299.89" font-family="Times,serif" font-size="14.00">{c}</text>
<text text-anchor="middle" x="324.6" y="-284.89" font-family="Times,serif" font-size="14.00">1,2,3,5,6</text>
</g>
<!-- ∅&#45;&#45;{c} -->
<g id="edge3" class="edge">
<title>∅&#45;&#45;{c}</title>
<path fill="none" stroke="black" d="M286.93,-359.45C294.02,-347.71 302.42,-333.81 309.49,-322.11"/>
</g>
<!-- {d} -->
<g id="node5" class="node">
<title>{d}</title>
<ellipse fill="ivory" stroke="black" cx="430.6" cy="-296.09" rx="31.23" ry="26.74"/>
<text text-anchor="middle" x="430.6" y="-299.89" font-family="Times,serif" font-size="14.00">{d}</text>
<text text-anchor="middle" x="430.6" y="-284.89" font-family="Times,serif" font-size="14.00">1,4</text>
</g>
<!-- ∅&#45;&#45;{d} -->
<g id="edge4" class="edge">
<title>∅&#45;&#45;{d}</title>
<path fill="none" stroke="black" d="M312.6,-364.72C335.78,-353.05 365.14,-337.77 390.6,-322.96 395.75,-319.97 401.16,-316.61 406.29,-313.33"/>
</g>
<!-- {a,b} -->
<g id="node6" class="node">
<title>{a,b}</title>
<ellipse fill="none" stroke="black" cx="39.6" cy="-206.35" rx="39.7" ry="26.74"/>
<text text-anchor="middle" x="39.6" y="-210.15" font-family="Times,serif" font-size="14.00">{a,b}</text>
<text text-anchor="middle" x="39.6" y="-195.15" font-family="Times,serif" font-size="14.00">Ø</text>
</g>
<!-- {a}&#45;&#45;{a,b} -->
<g id="edge5" class="edge">
<title>{a}&#45;&#45;{a,b}</title>
<path fill="none" stroke="black" d="M109.33,-273.85C94.97,-260.16 76.36,-242.41 61.98,-228.7"/>
</g>
<!-- {a,c} -->
<g id="node7" class="node">
<title>{a,c}</title>
<ellipse fill="ivory" stroke="black" cx="135.6" cy="-206.35" rx="38.78" ry="26.74"/>
<text text-anchor="middle" x="135.6" y="-210.15" font-family="Times,serif" font-size="14.00">{a,c}</text>
<text text-anchor="middle" x="135.6" y="-195.15" font-family="Times,serif" font-size="14.00">1,6</text>
</g>
<!-- {a}&#45;&#45;{a,c} -->
<g id="edge6" class="edge">
<title>{a}&#45;&#45;{a,c}</title>
<path fill="none" stroke="black" d="M132.8,-268.77C133.31,-257.56 133.9,-244.52 134.41,-233.35"/>
</g>
<!-- {a,d} -->
<g id="node8" class="node">
<title>{a,d}</title>
<ellipse fill="ivory" stroke="black" cx="328.6" cy="-206.35" rx="39.7" ry="26.74"/>
<text text-anchor="middle" x="328.6" y="-210.15" font-family="Times,serif" font-size="14.00">{a,d}</text>
<text text-anchor="middle" x="328.6" y="-195.15" font-family="Times,serif" font-size="14.00">1,4</text>
</g>
<!-- {a}&#45;&#45;{a,d} -->
<g id="edge7" class="edge">
<title>{a}&#45;&#45;{a,d}</title>
<path fill="none" stroke="black" d="M160.05,-278.46C166.08,-275.21 172.48,-271.96 178.6,-269.22 222.47,-249.56 236.64,-252.68 280.6,-233.22 286.66,-230.54 292.99,-227.39 299,-224.23"/>
</g>
<!-- {b}&#45;&#45;{a,b} -->
<g id="edge8" class="edge">
<title>{b}&#45;&#45;{a,b}</title>
<path fill="none" stroke="black" d="M194.31,-278.75C188.91,-275.41 183.15,-272.05 177.6,-269.22 139.22,-249.64 126.62,-251.47 87.6,-233.22 81.68,-230.45 75.47,-227.3 69.54,-224.17"/>
</g>
<!-- {b,c} -->
<g id="node9" class="node">
<title>{b,c}</title>
<ellipse fill="ivory" stroke="crimson" cx="231.6" cy="-206.35" rx="39.7" ry="26.74"/>
<text text-anchor="middle" x="231.6" y="-210.15" font-family="Times,serif" font-size="14.00">{b,c}</text>
<text text-anchor="middle" x="231.6" y="-195.15" font-family="Times,serif" font-size="14.00">2,5</text>
</g>
<!-- {b}&#45;&#45;{b,c} -->
<g id="edge9" class="edge">
<title>{b}&#45;&#45;{b,c}</title>
<path fill="none" stroke="black" d="M222.43,-269.24C224.11,-257.92 226.07,-244.66 227.75,-233.32"/>
</g>
<!-- {b,d} -->
<g id="node10" class="node">
<title>{b,d}</title>
<ellipse fill="none" stroke="black" cx="426.6" cy="-206.35" rx="40.11" ry="26.74"/>
<text text-anchor="middle" x="426.6" y="-210.15" font-family="Times,serif" font-size="14.00">{b,d}</text>
<text text-anchor="middle" x="426.6" y="-195.15" font-family="Times,serif" font-size="14.00">Ø</text>
</g>
<!-- {b}&#45;&#45;{b,d} -->
<g id="edge10" class="edge">
<title>{b}&#45;&#45;{b,d}</title>
<path fill="none" stroke="black" d="M242.08,-278.36C247.36,-275.04 253.05,-271.79 258.6,-269.22 308.73,-245.99 326.49,-254.22 377.6,-233.22 383.83,-230.66 390.31,-227.57 396.45,-224.42"/>
</g>
<!-- {c}&#45;&#45;{a,c} -->
<g id="edge11" class="edge">
<title>{c}&#45;&#45;{a,c}</title>
<path fill="none" stroke="black" d="M282.5,-277.95C254,-266.05 215.66,-249.48 182.6,-233.22 176.83,-230.38 170.76,-227.2 164.96,-224.06"/>
</g>
<!-- {c}&#45;&#45;{b,c} -->
<g id="edge12" class="edge">
<title>{c}&#45;&#45;{b,c}</title>
<path fill="none" stroke="black" d="M299.68,-271.58C285.47,-258.18 267.82,-241.52 254.04,-228.53"/>
</g>
<!-- {c,d} -->
<g id="node11" class="node">
<title>{c,d}</title>
<ellipse fill="none" stroke="black" cx="524.6" cy="-206.35" rx="39.7" ry="26.74"/>
<text text-anchor="middle" x="524.6" y="-210.15" font-family="Times,serif" font-size="14.00">{c,d}</text>
<text text-anchor="middle" x="524.6" y="-195.15" font-family="Times,serif" font-size="14.00">Ø</text>
</g>
<!-- {c}&#45;&#45;{c,d} -->
<g id="edge13" class="edge">
<title>{c}&#45;&#45;{c,d}</title>
<path fill="none" stroke="black" d="M367.28,-278.14C404.55,-263.24 455.71,-242.52 475.6,-233.22 481.79,-230.33 488.31,-227.05 494.51,-223.82"/>
</g>
<!-- {d}&#45;&#45;{a,d} -->
<g id="edge14" class="edge">
<title>{d}&#45;&#45;{a,d}</title>
<path fill="none" stroke="black" d="M408.97,-276.48C392.48,-262.3 369.77,-242.77 352.7,-228.08"/>
</g>
<!-- {d}&#45;&#45;{b,d} -->
<g id="edge15" class="edge">
<title>{d}&#45;&#45;{b,d}</title>
<path fill="none" stroke="black" d="M429.4,-268.77C428.89,-257.56 428.29,-244.52 427.78,-233.35"/>
</g>
<!-- {d}&#45;&#45;{c,d} -->
<g id="edge16" class="edge">
<title>{d}&#45;&#45;{c,d}</title>
<path fill="none" stroke="black" d="M451.46,-275.62C466.39,-261.68 486.47,-242.93 501.82,-228.61"/>
</g>
<!-- {a,b,c} -->
<g id="node12" class="node">
<title>{a,b,c}</title>
<ellipse fill="none" stroke="black" cx="115.6" cy="-116.61" rx="48.17" ry="26.74"/>
<text text-anchor="middle" x="115.6" y="-120.41" font-family="Times,serif" font-size="14.00">{a,b,c}</text>
<text text-anchor="middle" x="115.6" y="-105.41" font-family="Times,serif" font-size="14.00">Ø</text>
</g>
<!-- {a,b}&#45;&#45;{a,b,c} -->
<g id="edge17" class="edge">
<title>{a,b}&#45;&#45;{a,b,c}</title>
<path fill="none" stroke="black" d="M59.17,-182.76C70.25,-169.96 84.1,-153.98 95.3,-141.05"/>
</g>
<!-- {a,b,d} -->
<g id="node13" class="node">
<title>{a,b,d}</title>
<ellipse fill="none" stroke="black" cx="231.6" cy="-116.61" rx="49.49" ry="26.74"/>
<text text-anchor="middle" x="231.6" y="-120.41" font-family="Times,serif" font-size="14.00">{a,b,d}</text>
<text text-anchor="middle" x="231.6" y="-105.41" font-family="Times,serif" font-size="14.00">Ø</text>
</g>
<!-- {a,b}&#45;&#45;{a,b,d} -->
<g id="edge18" class="edge">
<title>{a,b}&#45;&#45;{a,b,d}</title>
<path fill="none" stroke="black" d="M69.59,-188.63C75.51,-185.49 81.71,-182.31 87.6,-179.48 124.58,-161.73 134.92,-159.72 172.6,-143.48 179.48,-140.51 186.8,-137.33 193.86,-134.24"/>
</g>
<!-- {a,c}&#45;&#45;{a,b,c} -->
<g id="edge19" class="edge">
<title>{a,c}&#45;&#45;{a,b,c}</title>
<path fill="none" stroke="black" d="M129.71,-179.5C127.12,-168.18 124.1,-154.92 121.52,-143.58"/>
</g>
<!-- {a,c,d} -->
<g id="node14" class="node">
<title>{a,c,d}</title>
<ellipse fill="ivory" stroke="crimson" cx="347.6" cy="-116.61" rx="48.17" ry="26.74"/>
<text text-anchor="middle" x="347.6" y="-120.41" font-family="Times,serif" font-size="14.00">{a,c,d}</text>
<text text-anchor="middle" x="347.6" y="-105.41" font-family="Times,serif" font-size="14.00">1</text>
</g>
<!-- {a,c}&#45;&#45;{a,c,d} -->
<g id="edge20" class="edge">
<title>{a,c}&#45;&#45;{a,c,d}</title>
<path fill="none" stroke="black" d="M164.52,-188.38C170.41,-185.22 176.63,-182.1 182.6,-179.48 228.54,-159.3 242.86,-161.72 289.6,-143.48 296.69,-140.71 304.17,-137.56 311.31,-134.43"/>
</g>
<!-- {a,d}&#45;&#45;{a,b,d} -->
<g id="edge21" class="edge">
<title>{a,d}&#45;&#45;{a,b,d}</title>
<path fill="none" stroke="black" d="M305.12,-184.11C290.43,-170.82 271.52,-153.72 256.56,-140.19"/>
</g>
<!-- {a,d}&#45;&#45;{a,c,d} -->
<g id="edge22" class="edge">
<title>{a,d}&#45;&#45;{a,c,d}</title>
<path fill="none" stroke="black" d="M334.2,-179.5C336.65,-168.18 339.52,-154.92 341.97,-143.58"/>
</g>
<!-- {b,c}&#45;&#45;{a,b,c} -->
<g id="edge23" class="edge">
<title>{b,c}&#45;&#45;{a,b,c}</title>
<path fill="none" stroke="black" d="M205.85,-185.88C187.43,-171.94 162.64,-153.19 143.71,-138.87"/>
</g>
<!-- {b,c,d} -->
<g id="node15" class="node">
<title>{b,c,d}</title>
<ellipse fill="none" stroke="black" cx="462.6" cy="-116.61" rx="48.58" ry="26.74"/>
<text text-anchor="middle" x="462.6" y="-120.41" font-family="Times,serif" font-size="14.00">{b,c,d}</text>
<text text-anchor="middle" x="462.6" y="-105.41" font-family="Times,serif" font-size="14.00">Ø</text>
</g>
<!-- {b,c}&#45;&#45;{b,c,d} -->
<g id="edge24" class="edge">
<title>{b,c}&#45;&#45;{b,c,d}</title>
<path fill="none" stroke="black" d="M261.08,-188.19C267.09,-185.05 273.46,-181.98 279.6,-179.48 333.13,-157.64 350.29,-163.3 404.6,-143.48 411.74,-140.87 419.25,-137.79 426.41,-134.68"/>
</g>
<!-- {b,d}&#45;&#45;{a,b,d} -->
<g id="edge25" class="edge">
<title>{b,d}&#45;&#45;{a,b,d}</title>
<path fill="none" stroke="black" d="M395.98,-188.62C389.94,-185.48 383.61,-182.3 377.6,-179.48 339.72,-161.69 329.1,-159.88 290.6,-143.48 283.7,-140.54 276.38,-137.37 269.32,-134.29"/>
</g>
<!-- {b,d}&#45;&#45;{b,c,d} -->
<g id="edge26" class="edge">
<title>{b,d}&#45;&#45;{b,c,d}</title>
<path fill="none" stroke="black" d="M437.01,-179.97C441.79,-168.33 447.44,-154.56 452.21,-142.93"/>
</g>
<!-- {c,d}&#45;&#45;{a,c,d} -->
<g id="edge27" class="edge">
<title>{c,d}&#45;&#45;{a,c,d}</title>
<path fill="none" stroke="black" d="M494.1,-189.04C487.99,-185.83 481.61,-182.52 475.6,-179.48 444.76,-163.89 409.37,-146.85 383.63,-134.61"/>
</g>
<!-- {c,d}&#45;&#45;{b,c,d} -->
<g id="edge28" class="edge">
<title>{c,d}&#45;&#45;{b,c,d}</title>
<path fill="none" stroke="black" d="M507.98,-181.84C499.23,-169.45 488.51,-154.28 479.69,-141.8"/>
</g>
<!-- {a,b,c,d} -->
<g id="node16" class="node">
<title>{a,b,c,d}</title>
<ellipse fill="none" stroke="black" cx="289.6" cy="-26.87" rx="57.97" ry="26.74"/>
<text text-anchor="middle" x="289.6" y="-30.67" font-family="Times,serif" font-size="14.00">{a,b,c,d}</text>
<text text-anchor="middle" x="289.6" y="-15.67" font-family="Times,serif" font-size="14.00">Ø</text>
</g>
<!-- {a,b,c}&#45;&#45;{a,b,c,d} -->
<g id="edge29" class="edge">
<title>{a,b,c}&#45;&#45;{a,b,c,d}</title>
<path fill="none" stroke="black" d="M150.81,-97.85C180,-83.13 221.43,-62.24 251.42,-47.12"/>
</g>
<!-- {a,b,d}&#45;&#45;{a,b,c,d} -->
<g id="edge30" class="edge">
<title>{a,b,d}&#45;&#45;{a,b,c,d}</title>
<path fill="none" stroke="black" d="M247.75,-91.17C255.66,-79.2 265.17,-64.82 273.13,-52.79"/>
</g>
<!-- {a,c,d}&#45;&#45;{a,b,c,d} -->
<g id="edge31" class="edge">
<title>{a,c,d}&#45;&#45;{a,b,c,d}</title>
<path fill="none" stroke="black" d="M331.44,-91.17C323.53,-79.2 314.02,-64.82 306.07,-52.79"/>
</g>
<!-- {b,c,d}&#45;&#45;{a,b,c,d} -->
<g id="edge32" class="edge">
<title>{b,c,d}&#45;&#45;{a,b,c,d}</title>
<path fill="none" stroke="black" d="M427.59,-97.85C398.66,-83.18 357.65,-62.38 327.86,-47.28"/>
</g>
</g>
</svg>
